Coordinates
version=1
nRows=21
nColumns=12
inDegrees=yes

Units are S.I. units (second, meters, Newtons, ...)
Angles are in degrees

endheader
time	SC_y	SC_z	SC_x	AC_y	AC_z	AC_x	GH_y	GH_z	GH_yy	EL_x	PS_y
       0.0              -26.26         -2.737          30.32          68.52          6.699          14.58          48.27         0.1855         -33.35          68.99          111.5
   0.02908              -26.26         -2.736          30.32          68.52          6.697          14.58          48.27         0.1862         -33.37           69.0          111.5
   0.05816              -26.27         -2.735          30.33          68.52          6.694          14.58          48.28         0.1869         -33.38          69.01          111.5
   0.08723              -26.27         -2.733          30.33          68.52          6.692          14.58          48.29         0.1876         -33.39          69.02          111.5
    0.1163              -26.27         -2.732          30.34          68.52          6.689          14.58          48.29         0.1884         -33.41          69.03          111.4
    0.1454              -26.28          -2.73          30.34          68.52          6.686          14.58           48.3         0.1893         -33.42          69.04          111.4
    0.1745              -26.28         -2.729          30.35          68.51          6.683          14.58          48.31         0.1902         -33.44          69.05          111.4
    0.2035              -26.29         -2.727          30.35          68.51           6.68          14.58          48.31         0.1912         -33.46          69.07          111.4
    0.2326              -26.29         -2.725          30.36          68.51          6.676          14.58          48.32         0.1922         -33.48          69.08          111.4
    0.2617               -26.3         -2.723          30.36          68.51          6.672          14.58          48.33         0.1933          -33.5           69.1          111.3
    0.2908               -26.3         -2.721          30.37          68.51          6.668          14.58          48.34         0.1945         -33.52          69.11          111.3
    0.3199              -26.31         -2.719          30.38          68.51          6.664          14.58          48.35         0.1958         -33.55          69.13          111.3
    0.3489              -26.31         -2.716          30.39          68.51          6.659          14.58          48.36         0.1972         -33.57          69.15          111.3
     0.378              -26.32         -2.714          30.39          68.51          6.654          14.58          48.37         0.1987          -33.6          69.17          111.2
    0.4071              -26.33         -2.711           30.4           68.5          6.649          14.58          48.39         0.2003         -33.63           69.2          111.2
    0.4362              -26.34         -2.708          30.41           68.5          6.643          14.59           48.4          0.202         -33.66          69.22          111.2
    0.4653              -26.34         -2.705          30.42           68.5          6.636          14.59          48.41          0.204          -33.7          69.25          111.1
    0.4943              -26.35         -2.701          30.44           68.5          6.629          14.59          48.43          0.206         -33.74          69.28          111.1
    0.5234              -26.36         -2.697          30.45           68.5          6.622          14.59          48.45         0.2083         -33.78          69.31          111.0
    0.5525              -26.38         -2.692          30.46          68.49          6.613          14.59          48.47         0.2108         -33.83          69.34          111.0
    0.5816              -26.39         -2.688          30.48          68.49          6.604          14.59          48.49         0.2135         -33.88          69.38          110.9
